<?xml version="1.0" encoding="UTF-8" standalone="no"?>
<!-- Created with Inkscape (http://www.inkscape.org/) -->

<svg
   xmlns:dc="http://purl.org/dc/elements/1.1/"
   xmlns:cc="http://creativecommons.org/ns#"
   xmlns:rdf="http://www.w3.org/1999/02/22-rdf-syntax-ns#"
   xmlns:svg="http://www.w3.org/2000/svg"
   xmlns="http://www.w3.org/2000/svg"
   xmlns:sodipodi="http://sodipodi.sourceforge.net/DTD/sodipodi-0.dtd"
   xmlns:inkscape="http://www.inkscape.org/namespaces/inkscape"
   width="1000"
   height="999.99982"
   id="svg236512"
   version="1.1"
   inkscape:version="0.48.5 r10040"
   sodipodi:docname="A.svg">
  <defs
     id="defs236514" />
  <sodipodi:namedview
     id="base"
     pagecolor="#ffffff"
     bordercolor="#666666"
     borderopacity="1.0"
     inkscape:pageopacity="0.0"
     inkscape:pageshadow="2"
     inkscape:zoom="0.40265036"
     inkscape:cx="911.42363"
     inkscape:cy="314.21431"
     inkscape:document-units="px"
     inkscape:current-layer="layer1"
     showgrid="false"
     fit-margin-left="0.5"
     fit-margin-bottom="0.5"
     fit-margin-top="0.5"
     fit-margin-right="0.5"
     inkscape:window-width="1055"
     inkscape:window-height="1030"
     inkscape:window-x="857"
     inkscape:window-y="-12"
     inkscape:window-maximized="0">
    <inkscape:grid
       type="xygrid"
       id="grid236545"
       empspacing="5"
       visible="true"
       enabled="true"
       snapvisiblegridlinesonly="true"
       originx="-314.5px"
       originy="-344.50006px" />
  </sodipodi:namedview>
  <metadata
     id="metadata236517">
    <rdf:RDF>
      <cc:Work
         rdf:about="">
        <dc:format>image/svg+xml</dc:format>
        <dc:type
           rdf:resource="http://purl.org/dc/dcmitype/StillImage" />
        <dc:title></dc:title>
      </cc:Work>
    </rdf:RDF>
  </metadata>
  <g
     inkscape:label="Layer 1"
     inkscape:groupmode="layer"
     id="layer1"
     transform="translate(-314.5,292.1377)">
    <rect
       style="fill:#ee3624;fill-opacity:1;fill-rule:evenodd;stroke:none"
       id="rect236490"
       width="999"
       height="998.99982"
       x="315"
       y="-291.6377" />
    <path
       inkscape:connector-curvature="0"
       d="m 580.95867,93.851891 c 0,-17.462833 -12.453,-31.604042 -35.2853,-31.604042 l -54.2494,0 0,63.208031 54.2494,0 c 22.00157,0 35.2853,-11.64246 35.2853,-31.603989 m -5.39663,-112.692872 c 0,-17.048507 -12.45467,-29.108883 -32.37936,-29.108883 l -51.75871,0 0,58.218026 51.75871,0 c 19.92469,0 32.37936,-11.22823957 32.37936,-29.109143 m -143.08281,196.278421 0,-277.367147 123.57172,0 c 52.71936,0 79.70204,33.684667 79.70204,70.69283 0,34.5151382 -21.5861,58.218078 -47.73805,63.624177 29.88873,4.575628 53.13473,33.268521 53.13473,67.78173 0,42.00176 -27.3982,75.26841 -80.53095,75.26841 l -128.13949,0 z"
       style="fill:#ffffff;fill-opacity:1;fill-rule:nonzero;stroke:none"
       id="path236320" />
    <path
       inkscape:connector-curvature="0"
       d="m 858.50559,177.43702 0,-39.50306 90.49509,-115.189693 -90.49509,0 0,-46.159523 162.31001,0 0,37.84238 -92.15685,116.852246 93.81665,0 0,46.15765 -163.96981,0 z"
       style="fill:#ffffff;fill-opacity:1;fill-rule:nonzero;stroke:none"
       id="path236322" />
    <path
       inkscape:connector-curvature="0"
       d="m 1035.979,177.43702 0,-39.50306 90.4952,-115.189693 -90.4952,0 0,-46.159523 162.3082,0 0,37.84238 -92.155,116.852246 93.8148,0 0,46.15765 -163.968,0 z"
       style="fill:#ffffff;fill-opacity:1;fill-rule:nonzero;stroke:none"
       id="path236324" />
    <path
       inkscape:connector-curvature="0"
       d="m 651.68496,97.125072 0,-120.539131 53.03701,0 0,118.722044 c 0,23.981725 14.55064,41.288095 42.74581,41.288095 27.87751,0 42.42602,-17.30637 42.42602,-41.288095 l 0,-118.722044 52.74002,0 0,120.243542 c 0,50.396167 -30.30592,85.926067 -95.16604,85.926067 -64.87158,0 -95.78282,-35.83694 -95.78282,-85.630478"
       style="fill:#ffffff;fill-opacity:1;fill-rule:nonzero;stroke:none"
       id="path236334" />
    <path
       inkscape:connector-curvature="0"
       d="m 431.48574,527.86926 0,-275.71011 191.02821,0 0,51.66948 -132.43322,0 0,57.87061 99.65124,0 0,51.66776 -99.65124,0 0,114.50226 -58.59499,0 z"
       style="fill:#ffffff;fill-opacity:1;fill-rule:nonzero;stroke:none"
       id="path236326" />
    <path
       inkscape:connector-curvature="0"
       d="m 696.46648,366.24563 c -32.5968,0 -46.62958,22.73412 -48.69241,42.5765 l 98.2081,0 c -1.65178,-19.01498 -14.85341,-42.5765 -49.51569,-42.5765 m -103.15966,61.59163 c 0,-57.87067 42.91486,-104.58006 103.15966,-104.58006 59.8311,0 99.85603,44.64115 99.85603,109.54025 l 0,12.40024 -148.13479,0 c 3.71202,24.38705 23.51958,44.64308 57.35603,44.64308 16.91619,0 40.02347,-7.02844 52.81666,-19.42696 l 23.52098,34.72284 c -19.80762,18.18581 -51.16753,27.69442 -82.11379,27.69442 -60.65585,0 -106.46078,-40.92394 -106.46078,-104.99381"
       style="fill:#ffffff;fill-opacity:1;fill-rule:nonzero;stroke:none"
       id="path236328" />
    <path
       inkscape:connector-curvature="0"
       d="m 908.34398,366.24563 c -32.5968,0 -46.62957,22.73412 -48.69241,42.5765 l 98.20816,0 c -1.65189,-19.01498 -14.85347,-42.5765 -49.51575,-42.5765 m -103.15965,61.59163 c 0,-57.87067 42.9149,-104.58006 103.15965,-104.58006 59.83245,0 99.85602,44.64115 99.85602,109.54025 l 0,12.40024 -148.13478,0 c 3.71467,24.38705 23.51964,44.64308 57.35603,44.64308 16.91619,0 40.02483,-7.02844 52.81801,-19.42696 l 23.51963,34.72284 c -19.80756,18.18581 -51.16753,27.69442 -82.11249,27.69442 -60.65709,0 -106.46208,-40.92394 -106.46208,-104.99381"
       style="fill:#ffffff;fill-opacity:1;fill-rule:nonzero;stroke:none"
       id="path236330" />
    <path
       inkscape:connector-curvature="0"
       d="m 1160.9655,427.86041 c 0,-30.99043 -18.6218,-56.82437 -55.2209,-56.82437 l -32.715,0 0,113.94074 32.4196,0 c 35.1139,0 55.5163,-27.35366 55.5163,-57.11637 m -137.7432,100.40054 0,-200.50903 80.4292,0 c 63.018,0 108.3136,37.88796 108.3136,100.10849 0,62.21684 -45.2956,100.40054 -108.0182,100.40054 l -80.7246,0 z"
       style="fill:#ffffff;fill-opacity:1;fill-rule:nonzero;stroke:none"
       id="path236332" />
  </g>
</svg>
